# xmcd
#
# Track frame offsets:
#	150
#	600
#	16664
#	19482
#	35022
#	37489
#	56880
#	72599
#	78206
#	90762
#	104620
#	121631
#	123558
#	134574
#	136166
#	148399
#	167640
#	183253
#	198846
#	213244
#	214192
#	229554
#	245619
#	263585
#	281148
#	310230
#	310732
#	311490
#	312558
#	313351
#	314280
#	314838
#	315542
#	316115
#	316777
#	319698
#	322549
#	324286
#	325781
#
# Disc length: 4363 seconds
#
# Revision: 1
# Processed by: cddbd v1.5.2PL0 Copyright (c) Steve Scherf et al.
# Submitted via: audiograbber 1.83.01
#
DISCID=31110927
DTITLE=Country Hotdisc - Country Hotdisc 009
DYEAR=1999
DGENRE=Country
TTITLE0=Intro - Intro
TTITLE1=I Don´t Want To Miss A Thing - Mark Chesnutt
TTITLE2=Spot - Joe Brown
TTITLE3=That´s The Way That The World Goes ´round - Joe Brown
TTITLE4=Spot - Glen Mitchell
TTITLE5=Evrything I Ever Wanted - Glen Mitchell
TTITLE6=Let´s Stick Together - Les Brown and Cindy Rose
TTITLE7=Spot - Narvel Felts
TTITLE8=Sonny Man - Narvel Felts
TTITLE9=My Sweet Nancy - Lou Hobbs
TTITLE10=I Still Can´t Say Goodbye - Charley Landborough
TTITLE11=Spot - Colin Fidoe From Easy Rider
TTITLE12=Crazy Little Thing Called Love - Easy Rider
TTITLE13=Spot - Bernie Brough From Southern Drawl
TTITLE14=Ain´t Too Wrong, Ain´t To Right - Southern Drawl
TTITLE15=Bee Bop - Jamie Ryan
TTITLE16=If I Had A Boat - Lyle Lovelett
TTITLE17=Come Back - Up The Junction
TTITLE18=Build A Better Fire - Crossfire
TTITLE19=Spot - Tom Lambert
TTITLE20=A Truckers Tribute To Red Sovie - Tom Lambert
TTITLE21=Woman Of 90´s - Judy Weldon
TTITLE22=Lochs Around Inchnadamps - The Ryes
TTITLE23=Radio Interview - Glen Mitchell
TTITLE24=Radio Interview - Glen Mitchell
TTITLE25=Spot - Joe Brown
TTITLE26=Spot - Glen Mitche
TTITLE27=Spot - Glen Mitche
TTITLE28=Spot - Narve Felts
TTITLE29=Spot - Narve Felts
TTITLE30=Spot - Lou Hobbs
TTITLE31=Spot - Easy Rider
TTITLE32=Spot - Easy Rider
TTITLE33=Spot - Mike Rye
TTITLE34=Spot - Mike Rye
TTITLE35=Spot - Mike Rye
TTITLE36=Spot - Mike Rye
TTITLE37=Spot - Mike Rye
TTITLE38=Spot - Mike Rye
EXTD=
EXTT0=
EXTT1=
EXTT2=
EXTT3=
EXTT4=
EXTT5=
EXTT6=
EXTT7=
EXTT8=
EXTT9=
EXTT10=
EXTT11=
EXTT12=
EXTT13=
EXTT14=
EXTT15=
EXTT16=
EXTT17=
EXTT18=
EXTT19=
EXTT20=
EXTT21=
EXTT22=
EXTT23=
EXTT24=
EXTT25=
EXTT26=
EXTT27=
EXTT28=
EXTT29=
EXTT30=
EXTT31=
EXTT32=
EXTT33=
EXTT34=
EXTT35=
EXTT36=
EXTT37=
EXTT38=
PLAYORDER=
